<svg width="40" height="39" viewBox="0 0 40 39" fill="none" xmlns="http://www.w3.org/2000/svg">
<g clip-path="url(#clip0_1_385)">
<path d="M0 19.5C0 8.73045 8.9543 0 20 0C31.0457 0 40 8.73045 40 19.5C40 30.2696 31.0457 39 20 39C8.9543 39 0 30.2696 0 19.5Z" fill="#060606"/>
<path fill-rule="evenodd" clip-rule="evenodd" d="M24.3891 7.79999C24.5985 9.18662 24.0196 10.5451 23.256 11.5062C22.439 12.5371 21.0308 13.3344 19.6664 13.2928C19.4173 11.9653 20.055 10.5974 20.831 9.67792C21.6822 8.66311 23.141 7.88455 24.3891 7.79999ZM28.4878 27.3175C29.1912 26.2665 29.454 25.7363 30 24.5497C26.0286 23.0771 25.3922 17.5722 29.3226 15.4594C28.1238 13.9935 26.4391 13.1438 24.8489 13.1438C23.7031 13.1438 22.918 13.4354 22.2043 13.7004C21.6096 13.9213 21.0644 14.1237 20.4012 14.1237C19.6847 14.1237 19.0501 13.9019 18.3856 13.6696C17.6555 13.4144 16.8893 13.1465 15.9385 13.1465C14.154 13.1465 12.2545 14.2096 11.0502 16.0272C9.35735 18.587 9.64611 23.3993 12.3913 27.4988C13.3726 28.9659 14.6836 30.6143 16.3983 30.6291C17.1099 30.636 17.5833 30.4289 18.0957 30.2049C18.6821 29.9484 19.3195 29.6697 20.4231 29.664C21.5333 29.6575 22.1606 29.9396 22.7393 30.1998C23.2385 30.4243 23.7014 30.6325 24.4069 30.6251C26.123 30.6116 27.5066 28.7847 28.4878 27.3175Z" fill="white"/>
</g>
<defs>
<clipPath id="clip0_1_385">
<rect width="40" height="39" fill="white"/>
</clipPath>
</defs>
</svg>
