<svg width="39" height="39" viewBox="0 0 39 39" fill="none" xmlns="http://www.w3.org/2000/svg">
<g clip-path="url(#clip0_2_40)">
<path d="M39 19.5C39 8.72934 30.2707 0 19.5 0C8.72934 0 0 8.72934 0 19.5C0 29.2348 7.12969 37.3014 16.4531 38.7639V25.1367H11.5019V19.5H16.4531V15.2039C16.4531 10.3175 19.3629 7.61719 23.8189 7.61719C25.9517 7.61719 28.1836 7.99805 28.1836 7.99805V12.7969H25.7233C23.301 12.7969 22.5469 14.3013 22.5469 15.8438V19.5H27.955L27.0905 25.1367H22.5469V38.7639C31.8703 37.3014 39 29.2348 39 19.5Z" fill="#1877F2"/>
<path d="M27.0905 25.1367L27.955 19.5H22.5469V15.8438C22.5469 14.3013 23.3009 12.7969 25.7232 12.7969H28.1836V7.99805C28.1836 7.99805 25.9517 7.61719 23.8189 7.61719C19.3629 7.61719 16.4531 10.3174 16.4531 15.2039V19.5H11.5019V25.1367H16.4531V38.7639C17.4471 38.92 18.464 39 19.5 39C20.5359 39 21.5528 38.92 22.5469 38.7639V25.1367H27.0905Z" fill="white"/>
</g>
<defs>
<clipPath id="clip0_2_40">
<rect width="39" height="39" fill="white"/>
</clipPath>
</defs>
</svg>
