<svg width="84" height="38" viewBox="0 0 84 38" fill="none" xmlns="http://www.w3.org/2000/svg">
<path d="M5.36422 19.16C5.92422 20.1733 6.55089 21.0533 7.24422 21.8C7.96422 22.5467 8.73755 23.12 9.56422 23.52C10.4176 23.92 11.3109 24.12 12.2442 24.12C13.2309 24.12 14.0442 23.88 14.6842 23.4C15.3242 22.8933 15.6442 22.2133 15.6442 21.36C15.6442 20.64 15.4576 20.0667 15.0842 19.64C14.7109 19.1867 14.1109 18.76 13.2842 18.36C12.4576 17.96 11.3642 17.5067 10.0042 17C9.33755 16.76 8.56422 16.4267 7.68422 16C6.83089 15.5733 6.01755 15.0267 5.24422 14.36C4.47089 13.6667 3.83089 12.84 3.32422 11.88C2.81755 10.8933 2.56422 9.70667 2.56422 8.32C2.56422 6.66666 2.99089 5.24 3.84422 4.04C4.72422 2.84 5.89755 1.93333 7.36422 1.32C8.85755 0.679999 10.5109 0.359999 12.3242 0.359999C14.1909 0.359999 15.8042 0.666666 17.1642 1.28C18.5509 1.89333 19.6976 2.66667 20.6042 3.6C21.5109 4.53333 22.2042 5.48 22.6842 6.44L17.5242 9.32C17.1242 8.65333 16.6576 8.08 16.1242 7.6C15.6176 7.09333 15.0442 6.70667 14.4042 6.44C13.7909 6.14667 13.1242 6 12.4042 6C11.4442 6 10.7109 6.21333 10.2042 6.64C9.69755 7.04 9.44422 7.54667 9.44422 8.16C9.44422 8.8 9.68422 9.36 10.1642 9.84C10.6709 10.32 11.3776 10.76 12.2842 11.16C13.2176 11.56 14.3376 11.9867 15.6442 12.44C16.6309 12.8133 17.5509 13.2533 18.4042 13.76C19.2576 14.24 20.0042 14.8267 20.6442 15.52C21.3109 16.2133 21.8309 17.0133 22.2042 17.92C22.5776 18.8267 22.7642 19.8667 22.7642 21.04C22.7642 22.4533 22.4709 23.72 21.8842 24.84C21.3242 25.9333 20.5509 26.8533 19.5642 27.6C18.6042 28.3467 17.4976 28.9067 16.2442 29.28C15.0176 29.68 13.7509 29.88 12.4442 29.88C10.6309 29.88 8.93755 29.56 7.36422 28.92C5.81755 28.2533 4.47089 27.36 3.32422 26.24C2.17755 25.12 1.28422 23.8933 0.644219 22.56L5.36422 19.16ZM24.5242 10.6H36.8442V15.6H24.5242V10.6ZM27.7642 4.2H33.5642V29H27.7642V4.2ZM48.7786 29.4C46.6453 29.4 44.7919 29.0133 43.2186 28.24C41.6719 27.44 40.4719 26.32 39.6186 24.88C38.7653 23.44 38.3386 21.7467 38.3386 19.8C38.3386 17.8267 38.7519 16.12 39.5786 14.68C40.4053 13.24 41.5919 12.1333 43.1386 11.36C44.7119 10.5867 46.5653 10.2 48.6986 10.2C50.8319 10.2 52.6319 10.5733 54.0986 11.32C55.5653 12.04 56.6853 13.0933 57.4586 14.48C58.2319 15.8667 58.6186 17.5467 58.6186 19.52C58.6186 19.8133 58.6186 20.1067 58.6186 20.4C58.6186 20.6667 58.5919 20.8933 58.5386 21.08H41.7386V17.72H53.0986L51.6586 19.56C51.7919 19.3733 51.8986 19.1467 51.9786 18.88C52.0853 18.5867 52.1386 18.3467 52.1386 18.16C52.1386 17.36 51.9919 16.6667 51.6986 16.08C51.4053 15.4933 50.9919 15.04 50.4586 14.72C49.9253 14.4 49.2986 14.24 48.5786 14.24C47.6719 14.24 46.9119 14.44 46.2986 14.84C45.6853 15.24 45.2186 15.8533 44.8986 16.68C44.6053 17.48 44.4453 18.4933 44.4186 19.72C44.4186 20.84 44.5786 21.8 44.8986 22.6C45.2186 23.4 45.6986 24.0133 46.3386 24.44C46.9786 24.84 47.7653 25.04 48.6986 25.04C49.7653 25.04 50.6719 24.84 51.4186 24.44C52.1919 24.04 52.8053 23.44 53.2586 22.64L58.6586 23.96C57.6986 25.7733 56.3919 27.1333 54.7386 28.04C53.1119 28.9467 51.1253 29.4 48.7786 29.4ZM68.3483 37.8H62.3083V10.6H68.3483V37.8ZM83.3883 19.8C83.3883 21.9333 82.9616 23.7333 82.1083 25.2C81.2816 26.6667 80.2016 27.7733 78.8683 28.52C77.5616 29.2667 76.1483 29.64 74.6283 29.64C73.0283 29.64 71.6416 29.24 70.4683 28.44C69.3216 27.6133 68.4416 26.4667 67.8283 25C67.2149 23.5067 66.9083 21.7733 66.9083 19.8C66.9083 17.8 67.2149 16.0667 67.8283 14.6C68.4416 13.1333 69.3216 12 70.4683 11.2C71.6416 10.3733 73.0283 9.96 74.6283 9.96C76.1483 9.96 77.5616 10.3333 78.8683 11.08C80.2016 11.8267 81.2816 12.9333 82.1083 14.4C82.9616 15.84 83.3883 17.64 83.3883 19.8ZM77.0283 19.8C77.0283 18.84 76.8283 18.0267 76.4283 17.36C76.0283 16.6933 75.4949 16.1867 74.8283 15.84C74.1616 15.4933 73.4283 15.32 72.6283 15.32C71.9349 15.32 71.2549 15.4933 70.5883 15.84C69.9483 16.16 69.4149 16.6533 68.9883 17.32C68.5616 17.9867 68.3483 18.8133 68.3483 19.8C68.3483 20.7867 68.5616 21.6133 68.9883 22.28C69.4149 22.9467 69.9483 23.4533 70.5883 23.8C71.2549 24.12 71.9349 24.28 72.6283 24.28C73.4283 24.28 74.1616 24.1067 74.8283 23.76C75.4949 23.4133 76.0283 22.9067 76.4283 22.24C76.8283 21.5733 77.0283 20.76 77.0283 19.8Z" fill="black"/>
</svg>
