<svg width="39" height="39" viewBox="0 0 39 39" fill="none" xmlns="http://www.w3.org/2000/svg">
<g clip-path="url(#clip0_2_32)">
<path fill-rule="evenodd" clip-rule="evenodd" d="M13.5138 0H25.4863C36.4128 0 39 2.58715 39 13.5137V25.4863C39 36.4128 36.4128 39 25.4863 39H13.5138C2.58715 39 0 36.4128 0 25.4863V13.5137C0 2.58715 2.58715 0 13.5138 0Z" fill="#4680C2"/>
<path fill-rule="evenodd" clip-rule="evenodd" d="M31.8762 12.4484C32.0688 11.8429 31.8762 11.4025 31.0229 11.4025H28.1881C27.4725 11.4025 27.1422 11.7878 26.9496 12.2007C26.9496 12.2007 25.4908 15.7237 23.4541 18.008C22.7935 18.6686 22.4908 18.8888 22.1331 18.8888C21.9403 18.8888 21.6927 18.6686 21.6927 18.0631V12.4209C21.6927 11.7053 21.4725 11.375 20.8669 11.375H16.4083C15.9679 11.375 15.6927 11.7053 15.6927 12.0356C15.6927 12.7237 16.711 12.8888 16.8211 14.8154V18.9989C16.8211 19.9071 16.656 20.0722 16.2982 20.0722C15.3349 20.0722 12.9954 16.5218 11.5918 12.4759C11.3165 11.6777 11.0413 11.375 10.3257 11.375H7.46329C6.63762 11.375 6.5 11.7604 6.5 12.1732C6.5 12.9163 7.46329 16.6594 10.9862 21.6136C13.3257 24.9988 16.656 26.8153 19.656 26.8153C21.4725 26.8153 21.6927 26.4025 21.6927 25.7145V23.1549C21.6927 22.3291 21.8578 22.1916 22.4358 22.1916C22.8486 22.1916 23.5917 22.4117 25.2706 24.0355C27.1972 25.9621 27.5275 26.8429 28.6009 26.8429H31.4358C32.2614 26.8429 32.6468 26.4301 32.4266 25.6319C32.1789 24.8337 31.2431 23.6778 30.0321 22.3016C29.3715 21.531 28.3807 20.6778 28.078 20.2649C27.6651 19.7145 27.7752 19.4943 28.078 18.9989C28.0505 18.9989 31.5183 14.0998 31.8762 12.4484Z" fill="white"/>
</g>
<defs>
<clipPath id="clip0_2_32">
<rect width="39" height="39" fill="white"/>
</clipPath>
</defs>
</svg>
